<svg xmlns="http://www.w3.org/2000/svg" xmlns:xlink="http://www.w3.org/1999/xlink" x="0px" y="0px"
	 width="80px" height="80px" viewBox="0 0 80 80" xml:space="preserve">
		<path fill="#FFFFFF" d="M67.641,1H12.298C5.748,1,0,5.808,0,12.355v22.675c5-1.146,10.259-1.939,16.149-1.794
			c13.731,0.337,21.386,2.8,28.029,4.973c5.837,1.91,10.69,3.558,19.902,3.558c6.355,0,11.919-0.459,14.919-1.07V12.355
			C79,5.808,74.19,1,67.641,1z"/>
		<path fill="#FFFFFF" d="M64.144,49.768c-11.443,0-17.927-2.161-24.317-4.252c-6.284-2.056-12.407-3.997-24.083-4.283
			C9.733,41.076,5,42.225,0,43.571v24.109C0,74.228,5.748,80,12.298,80h55.343C74.19,80,79,74.228,79,67.681V48.842
			C75,49.401,70.079,49.768,64.144,49.768z"/>
</svg>
