<?xml version="1.0" encoding="utf-8"?>
<!-- Generator: Adobe Illustrator 16.0.0, SVG Export Plug-In . SVG Version: 6.00 Build 0)  -->
<!DOCTYPE svg PUBLIC "-//W3C//DTD SVG 1.1//EN" "http://www.w3.org/Graphics/SVG/1.1/DTD/svg11.dtd">
<svg version="1.1" id="Layer_1" xmlns="http://www.w3.org/2000/svg" xmlns:xlink="http://www.w3.org/1999/xlink" x="0px" y="0px"
	 width="192px" height="192px" viewBox="-56 -56 192 192" enable-background="new -56 -56 192 192" xml:space="preserve">
<path fill="#3366CC" d="M108.275-56.062H-26.184c-15.914,0-29.879,11.682-29.879,27.587v55.091
	c12.148-2.785,24.925-4.711,39.235-4.359c33.361,0.82,51.959,6.803,68.098,12.083c14.185,4.641,25.974,8.647,48.356,8.647
	c15.44,0,28.956-1.116,36.245-2.602v-68.86C135.875-44.381,124.188-56.062,108.275-56.062z"/>
<path fill="#3366CC" d="M99.781,62.423c-27.802,0-43.556-5.249-59.081-10.33c-15.267-4.995-30.144-9.71-58.512-10.407
	c-14.604-0.379-26.103,2.41-38.251,5.68v58.576c0,15.91,13.965,29.934,29.879,29.934h134.459c15.912,0,27.6-14.023,27.6-29.929
	V60.173C126.155,61.531,114.2,62.423,99.781,62.423z"/>
</svg>
